<svg id="Layer_1" xmlns="http://www.w3.org/2000/svg" xmlns:xlink="http://www.w3.org/1999/xlink" viewBox="0 0 99.71 95.13">
    <defs>
        <style>.cls-1{fill:url(#linear-gradient);}</style>
        
        <linearGradient id="linear-gradient" x1="46.42" y1="47.67" x2="46.87" y2="47.67" gradientUnits="userSpaceOnUse">
            <stop offset="0" stop-color="#fff"/>
            <stop offset="1" stop-color="#fff"/>
        </linearGradient>
        
    </defs>
    
    <title>star</title>
    
    <polygon class="cls-1" points="49.45 78.07 19.15 93.63 25.23 60.11 1.07 36.1 34.83 31.53 50.2 1.13 64.97 31.82 98.63 37.04 74.01 60.58 79.44 94.21 49.45 78.07"/>
    
    <path d="M100.49,49.84l14.22,29.54.23.47.52.08,32.4,5-23.7,22.66-.38.36.08.52,5.23,32.37-28.87-15.54-.46-.25-.47.24-29.17,15L76,108l.09-.52-.37-.37L52.44,84l32.49-4.4.52-.07.24-.47,14.8-29.26m0-2.26L84.8,78.65,50.3,83.32,75,107.86l-6.21,34.25,31-15.9,30.65,16.5-5.55-34.37L150,84.28l-34.4-5.34-15.1-31.36Z" transform="translate(-50.3 -47.58)"/>
    
</svg>